<svg width="14" height="14" viewBox="0 0 14 14" fill="none" xmlns="http://www.w3.org/2000/svg">
<path id="Vector" d="M12.8803 0L1.19625 0C0.557812 0 0 0.459375 0 1.09031L0 12.8003C0 13.4347 0.557812 14 1.19625 14H12.8769C13.5188 14 14 13.4309 14 12.8003V1.09031C14.0037 0.459375 13.5188 0 12.8803 0ZM4.33969 11.6697H2.33406L2.33406 5.43375H4.33969V11.6697ZM3.40625 4.48562H3.39187C2.75 4.48562 2.33437 4.00781 2.33437 3.40969C2.33437 2.80062 2.76094 2.33406 3.41719 2.33406C4.07344 2.33406 4.475 2.79719 4.48938 3.40969C4.48906 4.00781 4.07344 4.48562 3.40625 4.48562ZM11.6697 11.6697H9.66406V8.26C9.66406 7.44312 9.37219 6.885 8.64656 6.885C8.09219 6.885 7.76406 7.26 7.61812 7.62531C7.56344 7.75656 7.54875 7.93531 7.54875 8.11781V11.6697H5.54313V5.43375H7.54875V6.30156C7.84062 5.88594 8.29656 5.28781 9.3575 5.28781C10.6741 5.28781 11.67 6.15562 11.67 8.02656L11.6697 11.6697Z" fill="#213809"/>
</svg>
