<svg xmlns="http://www.w3.org/2000/svg" width="3712" height="1360" viewBox="0 0 3712 1360"
    preserveAspectRatio="xMinYMin slice" fill="none">
    <path stroke="#D4DCDA" stroke-width="3" stroke-linecap="round" opacity="0.3"
        d="M299.579 2.09833C274.264 3.02777 244.55 29.1753 226.948 44.9627C167.65 98.1466 155.482 181.002 218.125 237.366C258.912 274.066 312.248 295.906 363.604 312.94C479.925 351.522 603.352 371.474 725.349 379.651C929.131 393.309 1140.71 384.856 1343.84 362.177C1353.88 361.056 1373.07 357.34 1341.6 360.866C1260.93 369.905 1181.81 371.77 1100.6 366.88C801.262 348.854 503.392 284.786 223.102 178.263C159.867 154.231 96.9256 127.812 36.6752 96.911C21.9008 89.3334 -19.9725 71.7379 15.4222 58.1648C69.2351 37.5288 134.981 39.189 191.154 41.982C304.617 47.6235 418.179 67.4436 525.523 105.135C791.206 198.423 1021.39 367.372 1241.31 538.677C1353.88 626.361 1463.72 718.599 1581.93 798.746C1655.71 848.763 1733.4 893.258 1819.79 917.249C1914.47 943.545 2000.49 932.562 2075.26 866.011C2152.71 797.079 2175.33 709.216 2090 634.82C2032.15 584.392 1960.51 551.596 1889.62 524.47C1754.2 472.654 1609.96 437.052 1464.85 429.539C1337.84 422.964 1208.28 437.84 1087.13 477.062C1003.84 504.027 930.532 547.032 856.944 593.389C815.537 619.474 767.944 657.094 717.43 662.952C672.791 668.129 638.439 636.309 612.605 603.938C563.707 542.664 426.98 329.656 565.384 293.821C638.096 274.995 721.391 288.367 793.483 301.586C959.317 331.993 1120.36 387.946 1279.2 443.066C1453.05 503.393 1625.8 567.194 1797.98 632.12C1908.41 673.763 2017.33 721.057 2128.6 760.371C2150.33 768.051 2168.97 776.905 2179.4 752.265C2197.02 710.649 2204.97 660.469 2211.61 616.178C2218.85 567.969 2227.93 503.531 2189.6 464.853C2143.72 418.562 2065.83 429.802 2014.25 458.474C1887.25 529.062 1811.7 728.836 1881.4 861.754C1893.22 884.298 1943.45 945.022 1976.64 915.131C2017.76 878.104 1978.77 785.559 1962.62 748.95C1877.81 556.7 1718.84 385.515 1546.15 268.834C1530.33 258.143 1412.78 171.08 1384.17 201.113C1354.77 231.976 1447.36 324.416 1459.88 337.079C1528.17 406.169 1609.06 463.298 1691.09 514.714C1827.23 600.037 1973.04 672.166 2120.72 735.126C2240.36 786.133 2363.41 828.306 2490.04 858.164C2555.76 873.66 2622.68 883.161 2688.5 898.121C2789.76 921.136 2883.09 960.935 2977 1004.7C3056.64 1041.81 3135.51 1080.19 3210.55 1126.06C3248.51 1149.27 3292.82 1174.44 3322.16 1209.09C3326.79 1214.56 3340.22 1231.25 3328.19 1238.56C3292.23 1260.4 3213.09 1217.75 3185.39 1204.08C3047.01 1135.75 2921.76 1039.42 2799.88 945.906C2759.45 914.888 2673.93 846.79 2631.32 811.974C2607.73 792.701 2579.23 777.354 2562.41 751.959C2555.66 741.769 2587.14 753.62 2598.59 757.878C2637.29 772.259 2695.53 798.508 2730.38 815.853C2870.3 885.498 3003.58 968.54 3137.1 1049.49C3254.48 1120.64 3370.23 1195.31 3491.57 1259.67C3562.56 1297.33 3635.8 1327.16 3709.85 1357.82" />
</svg>
