<svg xmlns="http://www.w3.org/2000/svg" width="1045" height="227" viewBox="0 0 1045 227" fill="none">
    <path opacity="0.3"
        d="M17.3259 2.28797C10.2283 3.73369 3.06865 12.499 -1.15875 17.7755C-15.3999 35.5508 -14.9585 59.4928 5.34773 72.4641C18.5695 80.9099 34.6363 84.5772 49.9201 86.9814C84.5375 92.4268 120.288 92.2845 155.085 88.8873C213.21 83.2125 272.501 70.9358 328.743 55.041C331.522 54.2556 336.762 52.3101 328.048 54.7765C305.714 61.0979 283.482 65.323 260.345 67.7403C175.06 76.6506 88.0371 72.5037 3.9884 55.5586C-14.9733 51.7357 -33.9639 47.226 -52.405 41.3258C-56.927 39.879 -69.5619 36.8731 -60.2118 31.3893C-45.9963 23.0521 -27.3722 20.4466 -11.3954 18.6082C20.8758 14.8948 53.8376 15.1765 85.8808 20.7903C165.19 34.6847 238.023 71.5824 308.07 109.625C343.924 129.097 379.223 149.981 416.318 167.063C439.467 177.724 463.464 186.643 488.955 189.372C516.895 192.363 540.648 185.243 558.629 162.974C577.252 139.908 579.526 114.064 551.975 97.0672C533.3 85.546 511.557 79.6438 490.291 75.3062C449.667 67.0206 407.312 63.7213 366.027 68.3864C329.891 72.4695 294.039 82.7233 261.696 99.4519C239.46 110.953 220.792 126.512 202.201 143.029C191.739 152.324 180.073 165.161 166.097 169.175C153.746 172.723 142.568 165.353 133.767 157.429C117.108 142.43 68.5796 88.7337 105.947 72.1541C125.579 63.4439 149.701 63.3216 170.656 63.68C218.858 64.5045 266.904 72.7593 314.29 80.8817C366.153 89.7715 417.866 99.6931 469.472 109.958C502.572 116.543 535.507 124.792 568.734 130.68C575.224 131.83 580.896 133.456 582.687 126.018C585.71 113.454 585.608 98.9269 585.412 86.1222C585.198 72.1845 584.748 53.582 572.127 44.4634C557.02 33.5499 535.574 40.3624 522.362 50.8622C489.837 76.7124 477.866 136.6 503.742 170.837C508.13 176.643 525.137 191.425 533.104 181.441C542.972 169.074 527.647 144.79 521.379 135.218C488.467 84.9501 435.618 44.0924 381.449 19.2508C376.486 16.9747 339.255 -2.08938 332.588 7.72068C325.737 17.8014 356.178 39.5493 360.301 42.5364C382.796 58.8332 408.286 71.1673 433.831 81.8359C476.223 99.5404 520.729 113.07 565.333 123.926C601.468 132.721 638.149 138.866 675.267 141.368C694.532 142.666 713.854 142.218 733.121 143.361C762.762 145.119 790.949 151.983 819.488 159.937C843.688 166.683 867.731 173.821 891.044 183.254C902.839 188.027 916.516 193.055 926.411 201.457C927.973 202.783 932.542 206.866 929.49 209.489C920.367 217.332 896.049 209 887.596 206.437C845.365 193.633 805.528 172.314 766.773 151.633C753.918 144.774 726.61 129.562 712.961 121.733C705.406 117.399 696.649 114.402 690.717 108.025C688.336 105.465 697.771 107.337 701.202 108.002C712.79 110.25 730.446 114.932 741.087 118.196C783.814 131.3 825.295 148.494 866.746 165.086C903.183 179.672 939.326 195.324 976.566 207.806C998.354 215.11 1020.41 220.1 1042.73 225.289"
        stroke="#D4DCDA" stroke-width="3" stroke-linecap="round"></path>
</svg>
