<svg width="8" height="514" viewBox="0 0 8 514" fill="none" xmlns="http://www.w3.org/2000/svg">
<circle cx="4" cy="4" r="4" fill="#D4DCDA"/>
<circle cx="4" cy="510" r="4" transform="rotate(-180 4 510)" fill="#D4DCDA"/>
<circle cx="4" cy="506" r="4" transform="rotate(-180 4 506)" fill="#D4DCDA"/>
<circle cx="4" cy="498" r="4" transform="rotate(-180 4 498)" fill="#D4DCDA"/>
<circle cx="4" cy="486" r="4" transform="rotate(-180 4 486)" fill="#D4DCDA"/>
<circle cx="4" cy="472" r="4" transform="rotate(-180 4 472)" fill="#D4DCDA"/>
<circle cx="4" cy="452" r="4" transform="rotate(-180 4 452)" fill="#D4DCDA"/>
<circle cx="4" cy="422" r="4" transform="rotate(-180 4 422)" fill="#D4DCDA"/>
<circle cx="4" cy="379" r="4" transform="rotate(-180 4 379)" fill="#D4DCDA"/>
<circle cx="4" cy="50" r="4" fill="#D4DCDA"/>
<circle cx="4" cy="27" r="4" fill="#D4DCDA"/>
<circle cx="4" cy="310" r="4" transform="rotate(-180 4 310)" fill="#D4DCDA"/>
</svg>
